<svg width="183" height="195" viewBox="0 0 183 195" fill="none" xmlns="http://www.w3.org/2000/svg">
<path d="M91.5 1C91.5 1 93.3898 25.7216 97 40C98.3021 45.1496 101 53 101 53C101 53 98.1627 58.9578 97 63C95.0449 69.7971 95 81 95 81C95 81 110.834 61.9884 121 52.5C128.377 45.6145 138.53 38.1919 146.599 32.2929L147 32C165.968 18.132 182 8.5 182 8.5L141 61.5L95 112.5L96.9434 164C105.925 151.113 109.443 143.5 119.5 131C129.557 118.5 132.578 114.263 142.5 104C152.013 94.1601 169.5 81 169.5 81C169.5 81 154.342 98.0931 144.5 109.5C136.889 118.321 132.475 123.168 125.5 132.5C119.275 140.829 114.915 145.622 109.5 154.5C104.177 163.228 98.5 176.5 98.5 176.5L92.5 193.5L86.5 177.5C86.5 177.5 83.8472 170.002 81.5 165.5C79.1458 160.985 74.5 154.5 74.5 154.5C74.5 154.5 69.7827 147.487 66 142C60.1672 133.539 55.5155 127.447 49 119.5C43.1987 112.424 34 101.5 34 101.5L14.5 80C14.5 80 29.2291 91.6451 37.5 100C45.8741 108.459 50.4133 113.328 58 122.5C65.4445 131.5 68.9386 136.837 75.5 146.5C80.3724 153.675 87 165.5 87 165.5L88.5 113.5L1 9C1 9 47.3435 36.0014 69 57C79.5372 67.217 90 80 90 80C90 80 89.5802 69.3797 87.5 63C86.1724 58.9285 83 53 83 53C83 53 85.2707 45.1119 86.5 40C89.9226 25.7676 91.5 1 91.5 1Z" fill="white"/>
<path d="M147 32C165.968 18.132 182 8.5 182 8.5L141 61.5L95 112.5L96.9434 164C105.925 151.113 109.443 143.5 119.5 131C129.557 118.5 132.578 114.263 142.5 104C152.013 94.1601 169.5 81 169.5 81C169.5 81 154.342 98.0931 144.5 109.5C136.889 118.321 132.475 123.168 125.5 132.5C119.275 140.829 114.915 145.622 109.5 154.5C104.177 163.228 98.5 176.5 98.5 176.5L92.5 193.5L86.5 177.5C86.5 177.5 83.8472 170.002 81.5 165.5C79.1458 160.985 74.5 154.5 74.5 154.5C74.5 154.5 69.7827 147.487 66 142C60.1672 133.539 55.5155 127.447 49 119.5C43.1987 112.424 34 101.5 34 101.5L14.5 80C14.5 80 29.2291 91.6451 37.5 100C45.8741 108.459 50.4133 113.328 58 122.5C65.4445 131.5 68.9386 136.837 75.5 146.5C80.3724 153.675 87 165.5 87 165.5L88.5 113.5L1 9C1 9 47.3435 36.0014 69 57C79.5372 67.217 90 80 90 80C90 80 89.5802 69.3797 87.5 63C86.1724 58.9285 83 53 83 53C83 53 85.2707 45.1119 86.5 40C89.9226 25.7676 91.5 1 91.5 1C91.5 1 93.3898 25.7216 97 40C98.3021 45.1496 101 53 101 53C101 53 98.1627 58.9578 97 63C95.0449 69.7971 95 81 95 81C95 81 110.834 61.9884 121 52.5C128.377 45.6145 138.53 38.1919 146.599 32.2929M147 32L146.599 32.2929M147 32C146.867 32.0972 146.733 32.1949 146.599 32.2929" stroke="black" stroke-opacity="0.44"/>
</svg>
